<?xml version="1.0" encoding="UTF-8"?>
<svg version="1.1" xmlns="http://www.w3.org/2000/svg" width="528" height="381">
<path d="M0 0 C6.13466381 5.86321851 11.39653945 12.63779907 12.203125 21.30859375 C12.33464369 27.63245088 11.19217324 30.66710879 6.9375 35.4375 C2.67021001 37.88892191 -1.19538093 38.00801107 -6 37.125 C-12.30971743 34.82697911 -17.87092989 31.48190332 -23.5 27.875 C-49.71792882 11.57773698 -78.60361881 3.34144799 -109.34057617 10.36132812 C-126.96473355 14.70978724 -145.42647105 23.08755022 -158.13671875 36.35546875 C-160 38.125 -160 38.125 -162 38.125 C-162.38478516 38.99898437 -162.38478516 38.99898437 -162.77734375 39.890625 C-164.11020268 42.32639275 -165.61182632 43.90462255 -167.5625 45.875 C-171.33050904 50.02187649 -174.13662351 54.39395314 -176.875 59.25 C-177.4464978 60.25305176 -177.4464978 60.25305176 -178.02954102 61.27636719 C-181.40579053 67.42712836 -183.28669813 73.22058551 -183.25 80.3125 C-183.25515625 81.31667969 -183.2603125 82.32085937 -183.265625 83.35546875 C-182.99607851 86.16588728 -182.54049152 87.78008799 -181 90.125 C-175.40249763 93.8111601 -169.68446261 94.64344214 -163.140625 93.72265625 C-149.66072657 90.77174584 -138.26760729 83.47383566 -129.953125 72.3984375 C-126.66491316 67.2487173 -123.86944274 61.89369532 -121.0859375 56.4609375 C-120.56636475 55.44990967 -120.04679199 54.43888184 -119.51147461 53.3972168 C-118.48587916 51.38722789 -117.47299083 49.37068847 -116.47485352 47.34692383 C-108.96113425 32.46775737 -108.96113425 32.46775737 -101.3125 29.875 C-98 30.125 -98 30.125 -95.625 31.875 C-90.48031971 38.99840348 -92.20158439 52.07262022 -93.30029297 60.40136719 C-94.92277925 69.119389 -98.40276557 76.6138262 -103 84.125 C-103.33 84.785 -103.66 85.445 -104 86.125 C-103.16597656 86.28355469 -102.33195312 86.44210938 -101.47265625 86.60546875 C-90.47691386 88.88522748 -80.42096141 92.86428225 -73.4921875 102.14453125 C-68.85656632 109.28338787 -68.22571973 115.64866864 -69 124.125 C-70.04682124 127.93162269 -71.45124487 131.49879822 -73 135.125 C-73.33 136.115 -73.66 137.105 -74 138.125 C-64.86997015 138.56324143 -57.18166074 138.6516233 -49 134.125 C-48.20851563 133.68929687 -47.41703125 133.25359375 -46.6015625 132.8046875 C-41.08496314 129.45074171 -37.49416149 125.52382206 -34 120.125 C-36.83405504 120.57917549 -39.66718174 121.03822398 -42.5 121.5 C-43.29148437 121.62632812 -44.08296875 121.75265625 -44.8984375 121.8828125 C-50.01384115 122.72140326 -54.98732638 123.80284985 -60 125.125 C-60 124.465 -60 123.805 -60 123.125 C-50.70544836 117.52714503 -42.65966904 115.90959493 -32 115.125 C-31.34 113.475 -30.68 111.825 -30 110.125 C-35.84888043 109.10605924 -41.50919169 109.00701547 -47.4375 109.0625 C-48.35982422 109.06701172 -49.28214844 109.07152344 -50.23242188 109.07617188 C-52.48835048 109.08786062 -54.74413967 109.10424545 -57 109.125 C-57 108.465 -57 107.805 -57 107.125 C-49.02005578 103.21645589 -38.56774891 102.44216953 -30 105.125 C-29.0241471 93.36055116 -32.14298035 82.63457618 -39.21875 73.2109375 C-40.9965172 71.05216656 -40.9965172 71.05216656 -43.21875 69.0390625 C-45 67.125 -45 67.125 -45 64.125 C-38.13446002 63.66474034 -31.89539622 64.12201375 -25.25 65.9375 C-24.60353516 66.11369873 -23.95707031 66.28989746 -23.29101562 66.47143555 C-19.96709294 67.42522335 -16.9934634 68.5908082 -13.9375 70.1875 C-9.00416457 72.17144349 -4.50426883 69.40278739 0.1328125 67.54296875 C4.13653015 65.98985566 8.1587254 65.08693802 12.375 64.3125 C14.27378906 63.96251953 14.27378906 63.96251953 16.2109375 63.60546875 C21.85863622 62.88931726 27.34020994 62.91752624 33 63.625 C33.763125 63.7178125 34.52625 63.810625 35.3125 63.90625 C36.1478125 64.01453125 36.1478125 64.01453125 37 64.125 C41.43442936 54.69275067 43.84690957 45.27700182 46 35.125 C49 35.125 49 35.125 50.7265625 36.75 C62.6205617 51.62973563 72.51913311 70.54807269 77 89.125 C78.60875 88.9084375 78.60875 88.9084375 80.25 88.6875 C97.01610979 86.62902745 97.01610979 86.62902745 103 88.125 C103 89.115 103 90.105 103 91.125 C101.85402344 91.24617188 100.70804687 91.36734375 99.52734375 91.4921875 C97.99736094 91.66114266 96.46741493 91.83043127 94.9375 92 C94.18533203 92.07863281 93.43316406 92.15726562 92.65820312 92.23828125 C87.9085007 92.77287979 83.55890412 93.68407147 79 95.125 C79.33 97.105 79.66 99.085 80 101.125 C80.75023437 101.10179687 81.50046875 101.07859375 82.2734375 101.0546875 C98.46625767 100.76917178 98.46625767 100.76917178 105 105.125 C105 105.785 105 106.445 105 107.125 C104.45214844 107.0528125 103.90429688 106.980625 103.33984375 106.90625 C95.54010957 105.99311039 87.84198809 106.03089614 80 106.125 C80.16081055 106.846875 80.32162109 107.56875 80.48730469 108.3125 C86.58986096 141.78938014 74.39295983 181.74845586 55.5625 209.3125 C51.88486475 214.39192447 47.9831629 219.28304428 44 224.125 C43.48566406 224.764375 42.97132813 225.40375 42.44140625 226.0625 C38.70022963 230.60463314 34.53901003 234.3908304 30 238.125 C29.50467773 238.5379834 29.00935547 238.9509668 28.49902344 239.37646484 C20.13224629 246.31873684 11.60513189 252.04719928 2 257.125 C1.07316406 257.64578125 0.14632812 258.1665625 -0.80859375 258.703125 C-33.7337054 276.44999369 -74.97164914 278.97942114 -110.625 268.9375 C-147.55800994 257.73437128 -179.88162186 232.54518248 -198.41259766 198.53222656 C-218.5923992 159.93861081 -222.40077169 118.73729377 -209.34423828 77.03027344 C-204.166972 61.85859857 -196.13887132 46.53106079 -186 34.125 C-185.55930176 33.58037109 -185.11860352 33.03574219 -184.66455078 32.47460938 C-169.57678851 13.93806974 -151.76406396 -0.01912455 -130 -9.875 C-129.01 -10.34421875 -128.02 -10.8134375 -127 -11.296875 C-88.16263029 -28.77369137 -33.57867665 -28.87223141 0 0 Z M-132.6171875 95.28515625 C-133.2992627 95.74583496 -133.98133789 96.20651367 -134.68408203 96.68115234 C-135.40708496 97.17824707 -136.13008789 97.6753418 -136.875 98.1875 C-156.01192695 110.91414845 -176.42687499 117.5589455 -199 121.125 C-199 121.455 -199 121.785 -199 122.125 C-176.33641634 123.56650002 -151.9645877 114.7351133 -133.875 101.1875 C-131.08855965 99.18853192 -129.37733075 98.43203007 -126 98.125 C-124.14209541 103.69871378 -124.24168933 109.80546149 -126.0625 115.375 C-133.43241515 125.83552473 -144.94071143 132.26602766 -157 136.125 C-153.71599163 138.84198534 -150.39859772 141.17730664 -146.75 143.375 C-135.55034202 150.49521267 -128.6508774 158.2359072 -123.5625 170.625 C-121.78836014 181.66409247 -123.03269228 190.94066738 -129.125 200.4375 C-138.5123955 209.21267406 -149.47329977 212.09822129 -162 213.125 C-162 213.455 -162 213.785 -162 214.125 C-149.04803542 214.81474959 -138.72969758 213.00950815 -128.1953125 205.1171875 C-121.9805279 199.47743635 -118.38156822 192.57515024 -117.6640625 184.20703125 C-117.31265664 167.63303166 -122.72635337 156.50003371 -133.83203125 144.27734375 C-137.27638818 140.85781101 -141.06631187 137.95689122 -145 135.125 C-142.83415852 133.47774029 -140.64900074 131.88110323 -138.4140625 130.328125 C-130.45397659 124.75383515 -124.01472086 119.67161605 -121 110.125 C-120.17626484 104.34741314 -121.42160334 100.28179331 -124 95.125 C-124.495 94.135 -124.495 94.135 -125 93.125 C-129.00184512 93.125 -129.58217639 93.18696219 -132.6171875 95.28515625 Z M-40 149.125 C-39.60167969 149.5375 -39.20335937 149.95 -38.79296875 150.375 C-31.64461893 158.16687523 -30.40786049 164.94264075 -30.65625 175.375 C-31.59570708 185.62362266 -36.44883058 194.85705351 -43.9140625 201.94140625 C-50.40982874 207.10437583 -57.57088767 210.96386162 -66.04296875 210.50390625 C-68 210.125 -68 210.125 -70.625 208.5625 C-72.12999994 205.89454556 -72.4348586 204.25084131 -71.80859375 201.2421875 C-69.68463505 195.68090434 -65.88737718 190.78361507 -62.4609375 185.95703125 C-59.20986646 181.19449736 -57.62188008 176.96965359 -58 171.125 C-59.23006943 167.5642727 -59.98940586 165.7602306 -63.1875 163.75 C-63.785625 163.54375 -64.38375 163.3375 -65 163.125 C-64.505 164.053125 -64.505 164.053125 -64 165 C-62.28275223 170.36639929 -61.83181247 175.40615784 -64.09765625 180.6796875 C-66.62903846 185.01341384 -69.5767784 188.87161804 -72.75 192.75 C-76.02318124 196.86693463 -77.47370804 199.86208041 -78 205.125 C-76.49847365 208.87881588 -74.44022539 211.04001491 -71 213.125 C-62.61567917 215.62282891 -54.6665798 214.1418559 -47 210.125 C-36.61079217 202.63997995 -29.19449243 192.24849791 -26.46484375 179.65625 C-25.21142547 170.55095861 -26.59037986 161.6383613 -32 154.125 C-33.9146377 152.19563432 -35.77249056 150.7229959 -38 149.125 C-38.66 149.125 -39.32 149.125 -40 149.125 Z M18 193.125 C17.0409375 194.4553125 17.0409375 194.4553125 16.0625 195.8125 C10.29924003 202.57875825 2.81738757 204.59168642 -5.56054688 206.54223633 C-22.67986225 210.57812683 -38.237451 216.41310362 -49 231.125 C-51.06795135 234.75354817 -51.97635455 237.9663728 -52.0625 242.1875 C-50.54997866 246.36917664 -48.54666835 249.39917629 -45 252.125 C-40.49768485 253.19334597 -38.51668537 252.89486765 -34.4296875 250.8203125 C-29.57894148 247.82141824 -25.05795352 244.42009066 -20.5 241 C-10.80895502 233.90058583 -1.45022247 230.14063725 10.625 231.5625 C12.295625 231.8409375 12.295625 231.8409375 14 232.125 C12.46355802 229.61817361 11.58611765 228.32037255 8.75 227.375 C-3.50126336 226.26124879 -12.18606865 229.94479235 -22 237.125 C-24.11990247 238.91172263 -26.17644094 240.75168782 -28.23046875 242.61328125 C-31.6627542 245.54549862 -34.74079641 246.95216813 -39.1875 247.5625 C-42 247.125 -42 247.125 -43.875 245.6875 C-45.86864184 241.14642691 -45.74705419 236.71384816 -44.37890625 231.97265625 C-40.55926178 223.12805728 -31.52823313 218.64486481 -23 215.125 C-16.91306174 213.37431643 -10.71666073 212.12135608 -4.5234375 210.80859375 C3.77387456 208.95034157 12.03910263 206.95846797 17.0625 199.5 C17.701875 198.38625 18.34125 197.2725 19 196.125 C18.505 194.64 18.505 194.64 18 193.125 Z " fill="#030707" transform="translate(357,87.875)"/>
<path d="M0 0 C2.875 2.625 2.875 2.625 5 5 C5.495 5.495 5.495 5.495 6 6 C7.23887902 18.37109195 7.23887902 18.37109195 3.9375 22.625 C-3.02791797 28.25661453 -9.19898148 28.88255339 -18 28 C-23.17142008 26.30753525 -26.06622394 23.57323915 -29 19 C-29.73116018 12.4195584 -28.9858465 6.55323122 -24.8125 1.1875 C-17.29855052 -4.65668293 -8.07398033 -4.41783829 0 0 Z " fill="#090C0D" transform="translate(417,174)"/>
<path d="M0 0 C1.63001953 0.01353516 1.63001953 0.01353516 3.29296875 0.02734375 C4.12441406 0.03894531 4.95585937 0.05054688 5.8125 0.0625 C5.8125 0.7225 5.8125 1.3825 5.8125 2.0625 C6.43125 2.330625 7.05 2.59875 7.6875 2.875 C9.8125 4.0625 9.8125 4.0625 11.8125 7.0625 C12.48614468 12.49082279 12.51256329 17.4581883 10.3125 22.5 C5.62251105 27.30723868 1.51704972 30.33653116 -5.375 30.5625 C-9.40396228 30.32804278 -12.08302193 29.80174536 -15.1875 27.0625 C-18.850532 22.90446368 -19.84201581 19.63221413 -19.5703125 14.234375 C-18.49966983 8.16011659 -13.86583827 4.54636893 -9.1875 1.0625 C-5.90230525 -0.03256492 -3.45086585 -0.03710608 0 0 Z " fill="#0C0D0F" transform="translate(352.1875,178.9375)"/>
<path d="M0 0 C2.875 2.625 2.875 2.625 5 5 C5.495 5.495 5.495 5.495 6 6 C7.23887902 18.37109195 7.23887902 18.37109195 3.9375 22.625 C-3.02791797 28.25661453 -9.19898148 28.88255339 -18 28 C-23.17142008 26.30753525 -26.06622394 23.57323915 -29 19 C-29.73116018 12.4195584 -28.9858465 6.55323122 -24.8125 1.1875 C-17.29855052 -4.65668293 -8.07398033 -4.41783829 0 0 Z M-22.8046875 6.1640625 C-24.42406425 8.65134051 -24.90585804 10.94501033 -24.609375 13.8984375 C-23.39602523 18.08293864 -21.42854617 21.2866107 -18 24 C-13.55401524 25.22839151 -9.95070558 24.34081898 -5.6875 22.8125 C-2.15907966 20.43286768 0.47838575 18.40332545 1.41796875 14.07421875 C1.70810521 9.91036841 1.33078742 8.40913181 -1.375 5.0625 C-5.67834379 1.68130131 -8.76233794 1.53378098 -14.15625 1.59765625 C-18.01015407 2.14292015 -20.11448148 3.3958795 -22.8046875 6.1640625 Z " fill="#E6E7E8" transform="translate(417,174)"/>
<path d="M0 0 C1.63001953 0.01353516 1.63001953 0.01353516 3.29296875 0.02734375 C4.12441406 0.03894531 4.95585937 0.05054688 5.8125 0.0625 C5.8125 0.7225 5.8125 1.3825 5.8125 2.0625 C6.43125 2.330625 7.05 2.59875 7.6875 2.875 C9.8125 4.0625 9.8125 4.0625 11.8125 7.0625 C12.48614468 12.49082279 12.51256329 17.4581883 10.3125 22.5 C5.62251105 27.30723868 1.51704972 30.33653116 -5.375 30.5625 C-9.40396228 30.32804278 -12.08302193 29.80174536 -15.1875 27.0625 C-18.850532 22.90446368 -19.84201581 19.63221413 -19.5703125 14.234375 C-18.49966983 8.16011659 -13.86583827 4.54636893 -9.1875 1.0625 C-5.90230525 -0.03256492 -3.45086585 -0.03710608 0 0 Z M-13.625 9.3125 C-15.66796228 12.90811362 -15.76075731 14.97804166 -15.1875 19.0625 C-14.09807728 22.6549879 -14.09807728 22.6549879 -11.1875 25.0625 C-5.88778155 26.14559379 -1.54808932 25.71849842 3.3125 23.375 C6.81336763 20.13669744 8.5228668 17.80029918 9.3125 13.0625 C8.64153137 9.03668824 6.89381146 7.63025955 3.8125 5.0625 C-2.32160454 1.99544773 -8.94181031 4.98955567 -13.625 9.3125 Z " fill="#E3E4E5" transform="translate(352.1875,178.9375)"/>
<path d="M0 0 C0 0.99 0 1.98 0 3 C-0.66 3.45375 -1.32 3.9075 -2 4.375 C-4.24445931 5.83753721 -4.24445931 5.83753721 -4.4375 8.4375 C-3.90884224 11.53392401 -3.22254619 12.78212303 -1 15 C1.96835863 15.48407934 1.96835863 15.48407934 5.1875 15.25 C6.27417969 15.21390625 7.36085938 15.1778125 8.48046875 15.140625 C9.31191406 15.09421875 10.14335937 15.0478125 11 15 C8.375 18.875 8.375 18.875 5 20 C-1.30179028 20.57289003 -1.30179028 20.57289003 -4.4375 18 C-4.953125 17.34 -5.46875 16.68 -6 16 C-7.2065625 17.4540625 -7.2065625 17.4540625 -8.4375 18.9375 C-11.77498729 22.33901582 -14.59421783 22.76208999 -19.2421875 22.9921875 C-19.82226562 22.99476563 -20.40234375 22.99734375 -21 23 C-21.66 21.68 -22.32 20.36 -23 19 C-22.39671875 19.05800781 -21.7934375 19.11601562 -21.171875 19.17578125 C-15.90946064 19.5372781 -15.90946064 19.5372781 -11.5 16.9375 C-9.78339288 13.57581106 -9.29379524 10.74588928 -9 7 C-9.61875 6.690625 -10.2375 6.38125 -10.875 6.0625 C-12.25 5.375 -13.625 4.6875 -15 4 C-15 3.34 -15 2.68 -15 2 C-13.43883181 1.66048381 -11.87598662 1.32867456 -10.3125 1 C-9.44238281 0.814375 -8.57226562 0.62875 -7.67578125 0.4375 C-5.06287036 0.01027953 -2.64186962 -0.07616201 0 0 Z " fill="#D1D3D3" transform="translate(382,201)"/>
<path d="M0 0 C2.875 2.625 2.875 2.625 5 5 C5.495 5.495 5.495 5.495 6 6 C6.07258946 8.18639453 6.08373783 10.37500389 6.0625 12.5625 C6.05347656 13.76003906 6.04445313 14.95757812 6.03515625 16.19140625 C6.02355469 17.11824219 6.01195312 18.04507813 6 19 C5.67 19 5.34 19 5 19 C4.505 15.535 4.505 15.535 4 12 C3.34 12 2.68 12 2 12 C1.67 12.99 1.34 13.98 1 15 C0.97421875 14.37351563 0.9484375 13.74703125 0.921875 13.1015625 C0.86515625 12.28429687 0.8084375 11.46703125 0.75 10.625 C0.70359375 9.81289062 0.6571875 9.00078125 0.609375 8.1640625 C0.21286384 5.83582141 0.21286384 5.83582141 -1.921875 4.7734375 C-2.60765625 4.51820313 -3.2934375 4.26296875 -4 4 C-4.66 3.67 -5.32 3.34 -6 3 C-11.13518086 2.41264271 -16.32911813 1.85593868 -20.625 5.125 C-23.20022439 8.24237689 -23.81430323 10.0075194 -24 14 C-24.103125 13.360625 -24.20625 12.72125 -24.3125 12.0625 C-24.539375 11.381875 -24.76625 10.70125 -25 10 C-25.99 9.67 -26.98 9.34 -28 9 C-27.7071869 5.58384716 -27.03045939 4.03852217 -24.875 1.3125 C-17.41803885 -4.68549049 -8.10272513 -4.43356658 0 0 Z " fill="#DEDEDF" transform="translate(417,174)"/>
<path d="M0 0 C3.96 0 7.92 0 12 0 C12 0.66 12 1.32 12 2 C12.639375 2.309375 13.27875 2.61875 13.9375 2.9375 C16 4 16 4 17 5 C17.07226502 6.85287502 17.0838122 8.70833878 17.0625 10.5625 C17.05347656 11.57441406 17.04445313 12.58632812 17.03515625 13.62890625 C17.02355469 14.41136719 17.01195312 15.19382813 17 16 C16.34 16.33 15.68 16.66 15 17 C14.91363281 16.38511719 14.82726562 15.77023438 14.73828125 15.13671875 C13.91424681 10.06354021 13.91424681 10.06354021 11 6 C6.72448052 4.57482684 2.48279633 4.25242931 -2 4 C-1.34 2.68 -0.68 1.36 0 0 Z " fill="#E4E5E7" transform="translate(346,179)"/>
<path d="M0 0 C0 0.99 0 1.98 0 3 C-0.66 3.4125 -1.32 3.825 -2 4.25 C-4.43362295 5.96372666 -4.43362295 5.96372666 -4.25 9.6875 C-4.12625 11.3271875 -4.12625 11.3271875 -4 13 C-5.32 13 -6.64 13 -8 13 C-8 11.02 -8 9.04 -8 7 C-8.598125 6.87625 -9.19625 6.7525 -9.8125 6.625 C-12 6 -12 6 -15 4 C-15 3.34 -15 2.68 -15 2 C-13.43883181 1.66048381 -11.87598662 1.32867456 -10.3125 1 C-9.44238281 0.814375 -8.57226562 0.62875 -7.67578125 0.4375 C-5.06287036 0.01027953 -2.64186962 -0.07616201 0 0 Z " fill="#F2F3F3" transform="translate(382,201)"/>
<path d="M0 0 C0.33 0 0.66 0 1 0 C1.62110153 10.66224287 1.62110153 10.66224287 -0.625 15.5 C-3.26229009 18.27609484 -5.71371606 20.05810494 -9 22 C-9.33 21.01 -9.66 20.02 -10 19 C-13.3 19 -16.6 19 -20 19 C-20 18.67 -20 18.34 -20 18 C-19.41992188 17.97421875 -18.83984375 17.9484375 -18.2421875 17.921875 C-12.7670579 17.52434084 -9.34190854 16.61825711 -5 13 C-3.23676495 10.87396815 -3.23676495 10.87396815 -2 9 C-1.67 9 -1.34 9 -1 9 C-0.67 6.03 -0.34 3.06 0 0 Z " fill="#DBDCDE" transform="translate(363,186)"/>
<path d="M0 0 C0 0.66 0 1.32 0 2 C0.99 2.66 1.98 3.32 3 4 C1.9275 4.4125 0.855 4.825 -0.25 5.25 C-3.55617557 6.6431264 -5.50359139 8.41443394 -8 11 C-8.99 11 -9.98 11 -11 11 C-9.7672897 6.34309441 -5.30909278 0 0 0 Z " fill="#E3E3E4" transform="translate(345,180)"/>
<path d="M0 0 C3.96 0 7.92 0 12 0 C11.67 1.32 11.34 2.64 11 4 C6.71 4 2.42 4 -2 4 C-1.34 2.68 -0.68 1.36 0 0 Z " fill="#F0F1F1" transform="translate(346,179)"/>
<path d="M0 0 C2.96175123 0.61277612 4.38058783 1.25372522 7 3 C9.32387947 3.39387788 11.65793749 3.73486085 14 4 C13.67 4.66 13.34 5.32 13 6 C11.22950311 6.05410687 9.45853151 6.09284119 7.6875 6.125 C6.20830078 6.15980469 6.20830078 6.15980469 4.69921875 6.1953125 C2 6 2 6 -1 4 C-0.67 2.68 -0.34 1.36 0 0 Z " fill="#F0F1F2" transform="translate(394,195)"/>
<path d="M0 0 C0.33 0.99 0.66 1.98 1 3 C1.33 2.67 1.66 2.34 2 2 C2.99 2.33 3.98 2.66 5 3 C5 3.66 5 4.32 5 5 C5.66 5.33 6.32 5.66 7 6 C2.20862412 7.6290678 -1.05632546 8.20577428 -6 7 C-4.02 4.69 -2.04 2.38 0 0 Z " fill="#18191B" transform="translate(362,200)"/>
<path d="M0 0 C3.63 0 7.26 0 11 0 C11 0.33 11 0.66 11 1 C8.69 1.33 6.38 1.66 4 2 C4 2.66 4 3.32 4 4 C5.9600281 5.63676257 5.9600281 5.63676257 8 7 C7.67 8.32 7.34 9.64 7 11 C5.82439821 9.73742767 4.65977135 8.46462916 3.5 7.1875 C2.8503125 6.47980469 2.200625 5.77210938 1.53125 5.04296875 C0 3 0 3 0 0 Z " fill="#001406" transform="translate(312,152)"/>
<path d="M0 0 C-0.33 0.99 -0.66 1.98 -1 3 C-1 2.34 -1 1.68 -1 1 C-3.64 1.66 -6.28 2.32 -9 3 C-9 4.32 -9 5.64 -9 7 C-11 6 -13 5 -15 4 C-15 3.34 -15 2.68 -15 2 C-13.43883181 1.66048381 -11.87598662 1.32867456 -10.3125 1 C-9.44238281 0.814375 -8.57226562 0.62875 -7.67578125 0.4375 C-5.06287036 0.01027953 -2.64186962 -0.07616201 0 0 Z " fill="#A9ABAB" transform="translate(382,201)"/>
<path d="M0 0 C0.33 0.99 0.66 1.98 1 3 C1.99 3 2.98 3 4 3 C4 2.34 4 1.68 4 1 C4.66 1 5.32 1 6 1 C6 1.99 6 2.98 6 4 C5.34 4 4.68 4 4 4 C4.66 5.98 5.32 7.96 6 10 C2.5442399 8.84807997 1.80171463 8.08865366 0 5 C-0.1875 2.25 -0.1875 2.25 0 0 Z " fill="#232524" transform="translate(377,207)"/>
<path d="M0 0 C1.45922693 0.11409593 2.91740598 0.24165544 4.375 0.375 C5.59316406 0.47941406 5.59316406 0.47941406 6.8359375 0.5859375 C9 1 9 1 11 3 C6.545 3.495 6.545 3.495 2 4 C1.34 2.68 0.68 1.36 0 0 Z " fill="#C0C4C5" transform="translate(359,220)"/>
<path d="M0 0 C0 0.99 0 1.98 0 3 C-3.3 3 -6.6 3 -10 3 C-10.33 2.34 -10.66 1.68 -11 1 C-7.27569643 0.30710631 -3.78916254 -0.11144596 0 0 Z " fill="#FAFBFC" transform="translate(353,205)"/>
<path d="M0 0 C0.33 0.66 0.66 1.32 1 2 C0.54625 2.433125 0.0925 2.86625 -0.375 3.3125 C-2.20024334 5.10798342 -2.20024334 5.10798342 -4 8 C-4 7.01 -4 6.02 -4 5 C-7.3 5 -10.6 5 -14 5 C-14 4.67 -14 4.34 -14 4 C-13.40832031 3.96261719 -12.81664062 3.92523438 -12.20703125 3.88671875 C-7.39332549 3.48623099 -3.99158223 2.9614965 0 0 Z " fill="#BABBBD" transform="translate(357,200)"/>
<path d="M0 0 C0.66 0.33 1.32 0.66 2 1 C1.566875 1.495 1.13375 1.99 0.6875 2.5 C-1.56381668 5.83528397 -2.671061 9.20303142 -4 13 C-4.33 13 -4.66 13 -5 13 C-5.61538462 5.73846154 -5.61538462 5.73846154 -2.5 2 C-1.675 1.34 -0.85 0.68 0 0 Z " fill="#202122" transform="translate(398,177)"/>
<path d="M0 0 C0 0.99 0 1.98 0 3 C-0.99 3 -1.98 3 -3 3 C-3.66 4.65 -4.32 6.3 -5 8 C-5.66 7.34 -6.32 6.68 -7 6 C-4.84615385 0 -4.84615385 0 0 0 Z " fill="#030606" transform="translate(348,185)"/>
<path d="M0 0 C0.33 1.32 0.66 2.64 1 4 C-3.75 8 -3.75 8 -6 8 C-5.67 7.01 -5.34 6.02 -5 5 C-4.34 5 -3.68 5 -3 5 C-2.87625 4.360625 -2.7525 3.72125 -2.625 3.0625 C-2.41875 2.381875 -2.2125 1.70125 -2 1 C-1.34 0.67 -0.68 0.34 0 0 Z " fill="#ECEDEE" transform="translate(360,199)"/>
<path d="M0 0 C0.66 0 1.32 0 2 0 C1.25 4.75 1.25 4.75 -1 7 C-1.99 7 -2.98 7 -4 7 C-2.79618552 4.50638429 -1.54571278 2.31856917 0 0 Z " fill="#E4E5E6" transform="translate(372,215)"/>
<path d="M0 0 C0.66 0.33 1.32 0.66 2 1 C1.67 2.32 1.34 3.64 1 5 C-0.32 5.33 -1.64 5.66 -3 6 C-3 7.98 -3 9.96 -3 12 C-3.33 12 -3.66 12 -4 12 C-4.33292585 7.75519536 -4.43885872 5.64457375 -2 2.0625 C-1.34 1.381875 -0.68 0.70125 0 0 Z " fill="#3E3F40" transform="translate(341,186)"/>
<path d="M0 0 C2.31 0.66 4.62 1.32 7 2 C4.37352812 3.75098126 1.71224618 5.38731308 -1 7 C-1.125 2.25 -1.125 2.25 0 0 Z " fill="#141517" transform="translate(339,177)"/>
<path d="M0 0 C-1.0625 1.5 -1.0625 1.5 -3 3 C-6.6875 3.1875 -6.6875 3.1875 -10 3 C-10.33 2.34 -10.66 1.68 -11 1 C-9.5437328 0.63743142 -8.08488815 0.28520207 -6.625 -0.0625 C-5.40683594 -0.35833984 -5.40683594 -0.35833984 -4.1640625 -0.66015625 C-2 -1 -2 -1 0 0 Z " fill="#E8ECED" transform="translate(393,217)"/>
<path d="M0 0 C0 0.66 0 1.32 0 2 C0.99 2.66 1.98 3.32 3 4 C-0.3 4.33 -3.6 4.66 -7 5 C-2.25 0 -2.25 0 0 0 Z " fill="#DADBDC" transform="translate(345,180)"/>
<path d="M0 0 C0 0.33 0 0.66 0 1 C-1.65 1.33 -3.3 1.66 -5 2 C-3.68 2.66 -2.36 3.32 -1 4 C-3.31 4 -5.62 4 -8 4 C-8.33 3.01 -8.66 2.02 -9 1 C-6.04335481 -0.4783226 -3.25770263 -0.06032783 0 0 Z " fill="#ACAEB0" transform="translate(388,217)"/>
<path d="M0 0 C0.99 0.33 1.98 0.66 3 1 C0.31158141 3.25245881 -1.64641875 4.88213958 -5 6 C-5.33 5.01 -5.66 4.02 -6 3 C-5.195625 2.690625 -4.39125 2.38125 -3.5625 2.0625 C-1.10919595 1.23664655 -1.10919595 1.23664655 0 0 Z " fill="#191A1C" transform="translate(356,198)"/>
</svg>
